<?xml version="1.0" encoding="utf-8"?>
<!-- Generator: Adobe Illustrator 23.1.0, SVG Export Plug-In . SVG Version: 6.00 Build 0)  -->
<svg version="1.1" id="圖層_1" xmlns="http://www.w3.org/2000/svg" xmlns:xlink="http://www.w3.org/1999/xlink" x="0px" y="0px"
	 viewBox="0 0 48 48" style="enable-background:new 0 0 48 48;" xml:space="preserve">
<style type="text/css">
	.st0{fill:#FFFFFF;}
</style>
<path class="st0" d="M19.4,44l-1-6.3c-0.6-0.2-1.3-0.5-2-1c-0.7-0.4-1.3-0.8-1.8-1.3l-5.9,2.7L4,30l5.4-3.9c-0.1-0.3-0.1-0.6-0.1-1
	c0-0.4,0-0.7,0-1c0-0.3,0-0.6,0-1s0.1-0.7,0.1-1L4,18l4.7-8.2l5.9,2.7c0.5-0.4,1.1-0.9,1.8-1.3c0.7-0.4,1.4-0.7,2-0.9l1-6.3h9.2
	l1,6.3c0.6,0.2,1.3,0.5,2,0.9c0.7,0.4,1.3,0.8,1.8,1.3l5.9-2.7L44,18l-5.4,3.9c0.1,0.3,0.1,0.7,0.1,1.1c0,0.4,0,0.7,0,1.1
	c0,0.3,0,0.7,0,1.1c0,0.4-0.1,0.7-0.1,1L44,30l-4.6,8.2l-5.9-2.7c-0.5,0.4-1.1,0.9-1.8,1.3c-0.7,0.4-1.4,0.7-2,0.9l-1,6.3H19.4z
	 M24,30.5c1.8,0,3.3-0.6,4.6-1.9c1.3-1.3,1.9-2.8,1.9-4.6c0-1.8-0.6-3.3-1.9-4.6c-1.3-1.3-2.8-1.9-4.6-1.9c-1.8,0-3.3,0.6-4.6,1.9
	c-1.3,1.3-1.9,2.8-1.9,4.6c0,1.8,0.6,3.3,1.9,4.6C20.7,29.9,22.2,30.5,24,30.5z"/>
</svg>
